<?xml version="1.0" encoding="utf-8"?><!-- Generator: Adobe Illustrator 25.2.3, SVG Export Plug-In . SVG Version: 6.00 Build 0)  --><svg version="1.1" id="loghi" xmlns="http://www.w3.org/2000/svg" xmlns:xlink="http://www.w3.org/1999/xlink" x="0px" y="0px" viewBox="0 0 595.28 595.28" style="enable-background:new 0 0 595.28 595.28;" xml:space="preserve"><style type="text/css">
	.st0{fill:#E8483B;}
	.st1{fill:#0286C8;}
</style><g id="mani"><g><path class="st0" d="M157.9,386.48c6.54,8.37,12.32,16.55,18.91,24.01c7.57,8.57,15.18,17.34,23.97,24.57
			c20.56,16.9,43.57,29.74,69.4,36.84c10.52,2.89,21.4,4.49,31.95,7.28c3.19,0.84,7.13,2.67,8.75,5.6
			c-0.73,3.84-4.78,6.81-7.85,7.61c-20.14,5.21-38.56,4.02-58.5-6.13c-11.22-5.31-22.26-11.92-31.29-20.17
			c-23.69-21.66-42.09-47.54-55.31-76.93C157.67,388.58,157.28,387.35,157.9,386.48z"/><path class="st0" d="M173.75,395.49c11.23,6.5,21.82,12.37,32.15,18.67c19.04,11.63,40.12,15.49,61.91,16.42
			c9.18,0.39,18.41-0.5,27.6-0.26c3.07,0.08,6.25,0.97,9.15,2.88c-0.87,3.24-3.47,5.82-6.04,7.24
			c-22.83,12.62-45.72,10.09-67.86-1.57c-10.53-5.54-20.25-12.67-30.06-19.49c-7.16-4.98-14-10.45-20.68-16.06
			C177.41,401.22,175.15,398.72,173.75,395.49z"/><path class="st0" d="M186.72,392.96c19.85,8.13,39.99,8.19,60.27,5.76c7.84-0.94,15.49-3.37,23.28-4.83
			c1.98-0.37,4.52-0.17,6.27,0.61c-0.12,2.41-1.56,4.59-3.16,5.82c-12.27,9.37-26.25,13.14-41.42,10.38
			c-14.59-2.65-28.81-7.86-42.13-14.59C188.66,395.5,186.94,394.55,186.72,392.96z"/></g><path class="st0" d="M78.78,349.57c-8.94-33.13-9.07-47.29-8.21-83.58c1.98-32.04,6.06-52.23,15.85-77.44		c8.26-21.27,28.03-45.31,43.84-61.15c23.24-23.27,57.61-43.82,88.32-53.86c1.76-0.57,4.8-0.52,6.28,1.37		c0.25,1.51-0.98,3.96-2.23,5.36c-6.87,7.68-16.61,16.26-23.16,23.59c-10.06,11.25-25.99,34.92-34.39,51.64		c-4.63,9.22-8.83,29.73-10.21,44.09c-2,28.62,9.61,45.82,36.66,63.97c18.46,13.65,50.92,23.07,73.76,26.03		c5.21,0.68,10.62-0.32,15.92-0.11c7.73,0.31,10.66,5.22,6.74,11.84c-6.82,11.5-18.23,16.17-30.62,18.21		c-17.23,2.84-33.65-1.97-50.07-6.52c-8.95-2.48-18.03-5.21-27.2-5.97c-24.83-2.06-44.04,13.65-40.92,41.57		c2.43,21.79,11.97,47.99,23.1,67.34c20.21,36.24,40.3,52.78,65.66,77.09c6.91,6.62,14.48,12.58,21.18,19.39		c2.42,2.46,4.33,5.98,4.74,9.88c-3.13,1.59-7.08,2.54-10.22,1.89c-16.36-3.35-30.62-11.22-44.5-20.49		c-21.72-15.67-38.57-32.34-55.5-51.2C109.84,414.96,91.38,392.4,78.78,349.57z"/><g><path class="st1" d="M443.18,209.98c-6.54-8.37-12.32-16.55-18.91-24.01c-7.57-8.57-15.18-17.34-23.97-24.57			c-20.56-16.9-43.57-29.74-69.4-36.84c-10.52-2.89-21.4-4.49-31.95-7.28c-3.19-0.84-7.13-2.67-8.75-5.6			c0.73-3.84,4.78-6.81,7.85-7.61c20.14-5.21,38.56-4.02,58.5,6.13c11.22,5.31,22.26,11.92,31.29,20.17			c23.69,21.66,42.09,47.54,55.31,76.93C443.42,207.88,443.81,209.11,443.18,209.98z"/><path class="st1" d="M427.34,200.98c-11.23-6.5-21.82-12.37-32.15-18.67c-19.04-11.63-40.12-15.49-61.91-16.42			c-9.18-0.39-18.41,0.5-27.6,0.26c-3.07-0.08-6.25-0.97-9.15-2.88c0.87-3.24,3.47-5.82,6.04-7.24			c22.83-12.62,45.72-10.09,67.86,1.57c10.53,5.54,20.25,12.67,30.06,19.49c7.16,4.98,14,10.45,20.68,16.06			C423.67,195.25,425.94,197.75,427.34,200.98z"/><path class="st1" d="M414.36,203.51c-19.85-8.13-39.99-8.19-60.27-5.76c-7.84,0.94-15.49,3.37-23.28,4.83			c-1.98,0.37-4.52,0.17-6.27-0.61c0.12-2.41,1.56-4.59,3.16-5.82c12.27-9.37,26.25-13.14,41.42-10.38			c14.59,2.65,28.81,7.86,42.13,14.59C412.43,200.97,414.15,201.92,414.36,203.51z"/></g><path class="st1" d="M522.3,246.89c8.94,33.13,9.07,47.29,8.21,83.58c-1.98,32.04-6.06,52.23-15.85,77.44		c-8.26,21.27-28.03,45.31-43.84,61.15c-23.24,23.27-57.61,43.82-88.32,53.86c-1.76,0.57-4.8,0.52-6.28-1.37		c-0.25-1.51,0.98-3.96,2.23-5.36c6.87-7.68,16.61-16.26,23.16-23.59c10.06-11.25,25.99-34.92,34.39-51.64		c4.63-9.22,8.83-29.73,10.21-44.09c2-28.62-9.61-45.82-36.66-63.97c-18.46-13.65-50.92-23.07-73.76-26.03		c-5.21-0.68-10.62,0.32-15.92,0.11c-7.73-0.31-10.66-5.22-6.74-11.84c6.82-11.5,18.23-16.17,30.62-18.21		c17.23-2.84,33.65,1.97,50.07,6.52c8.95,2.48,18.03,5.21,27.2,5.97c24.83,2.06,44.04-13.65,40.92-41.57		c-2.43-21.79-11.97-47.99-23.1-67.34c-20.21-36.24-40.3-52.78-65.66-77.09c-6.91-6.62-14.48-12.58-21.18-19.39		c-2.42-2.46-4.33-5.98-4.74-9.88c3.13-1.59,7.08-2.54,10.22-1.89c16.36,3.35,30.62,11.22,44.5,20.49		c21.72,15.67,38.57,32.34,55.5,51.2C491.24,181.51,509.71,204.07,522.3,246.89z"/></g></svg>